<?xml version="1.0" encoding="utf-8"?>
<!-- Generator: Adobe Illustrator 24.1.0, SVG Export Plug-In . SVG Version: 6.00 Build 0)  -->
<svg version="1.1" xmlns="http://www.w3.org/2000/svg" xmlns:xlink="http://www.w3.org/1999/xlink" x="0px" y="0px"
	 viewBox="0 0 595.28 841.89" style="enable-background:new 0 0 595.28 841.89;" xml:space="preserve">
<style type="text/css">
	.st0{display:none;}
	.st1{fill:none;stroke:#000000;stroke-linecap:round;stroke-miterlimit:10;}
	.st2{fill:none;stroke:#000000;stroke-linecap:round;stroke-linejoin:round;stroke-miterlimit:10;}
	.st3{fill:none;stroke:#000000;stroke-miterlimit:10;}
</style>
<g id="Capa_2" class="st0">
</g>
<g id="Capa_1">
	<g>
		<g id="XMLID_1_">
			<g>
				<path d="M436.33,434.77v135.48c-13.6,161.29-138.68,148.92-138.68,148.92c-25.22,0-49.69-3.36-72.99-9.54v-78.27
					c22.71,8.42,47.29,13.06,72.99,13.06c0,0,62.44-0.8,64.52-86.86c-19.3,10.18-41.22,15.94-64.52,15.94
					c-76.62,0-138.68-62.12-138.68-138.73c0-76.57,62.06-138.68,138.68-138.68c23.3,0,45.21,5.76,64.52,15.94
					C406.25,335.23,436.33,381.51,436.33,434.77z M362.16,434.77c0-35.62-28.9-64.46-64.52-64.46s-64.52,28.85-64.52,64.46
					c0,35.67,28.9,64.52,64.52,64.52S362.16,470.44,362.16,434.77z"/>
				<path d="M165.42,597.45v89.09C74.99,638.93,13.3,544.08,13.3,434.77c0-157.02,127.27-284.35,284.35-284.35
					c83.12,0,157.93,35.72,209.97,92.61v-18.77V125.9c16-25.49,43.13-50.87,74.38-52.89v196.1v165.66
					c0,74.06-28.31,141.51-74.38,192.8V435.47c-0.32-116.45-94.21-210.29-209.97-210.29C181.84,225.18,88,319.02,88,434.77
					C88,500.46,118.18,559,165.42,597.45z"/>
			</g>
			<g>
				<path class="st1" d="M362.16,312.03c-19.3-10.18-41.22-15.94-64.52-15.94c-76.62,0-138.68,62.12-138.68,138.68
					c0,76.62,62.06,138.73,138.68,138.73c23.3,0,45.21-5.76,64.52-15.94"/>
				<line class="st2" x1="436.33" y1="570.25" x2="436.33" y2="434.77"/>
				<path class="st3" d="M436.33,434.77c0-53.26-30.07-99.55-74.17-122.74"/>
				<path class="st3" d="M362.16,434.77c0,35.67-28.9,64.52-64.52,64.52s-64.52-28.85-64.52-64.52c0-35.62,28.9-64.46,64.52-64.46
					S362.16,399.16,362.16,434.77z"/>
				<path class="st2" d="M362.16,557.56c-2.08,86.06-64.52,86.86-64.52,86.86c-25.7,0-50.28-4.64-72.99-13.06v78.27
					c23.3,6.18,47.77,9.54,72.99,9.54c0,0,125.08,12.37,138.68-148.92"/>
				<path class="st2" d="M507.61,224.27v18.77c-52.04-56.89-126.84-92.61-209.97-92.61c-157.08,0-284.35,127.32-284.35,284.35
					c0,109.3,61.69,204.16,152.12,251.77v-89.09C118.18,559,88,500.46,88,434.77c0-115.75,93.84-209.59,209.65-209.59
					c115.75,0,209.65,93.84,209.97,210.29v192.11c46.07-51.29,74.38-118.74,74.38-192.8V269.11"/>
				<path class="st2" d="M581.99,269.11V73.01c-31.24,2.03-58.38,27.41-74.38,52.89v98.37"/>
			</g>
		</g>
	</g>
</g>
</svg>
